<svg xmlns="http://www.w3.org/2000/svg" version="1.1" xmlns:xlink="http://www.w3.org/1999/xlink" xmlns:svgjs="http://svgjs.dev/svgjs" width="2000" height="272" viewBox="0 0 2000 272"><g transform="matrix(1,0,0,1,-1.2121212121212466,-1.6451416377526868)"><svg viewBox="0 0 396 54" data-background-color="#ffffff" preserveAspectRatio="xMidYMid meet" height="272" width="2000" xmlns="http://www.w3.org/2000/svg" xmlns:xlink="http://www.w3.org/1999/xlink"><g id="tight-bounds" transform="matrix(1,0,0,1,0.2400000000000091,0.3266090016126668)"><svg viewBox="0 0 395.52 53.346781996774666" height="53.346781996774666" width="395.52"><g><svg viewBox="0 0 395.52 53.346781996774666" height="53.346781996774666" width="395.52"><g><svg viewBox="0 0 395.52 53.346781996774666" height="53.346781996774666" width="395.52"><g id="textblocktransform"><svg viewBox="0 0 395.52 53.346781996774666" height="53.346781996774666" width="395.52" id="textblock"><g><svg viewBox="0 0 395.52 53.346781996774666" height="53.346781996774666" width="395.52"><g transform="matrix(1,0,0,1,0,0)"><svg width="395.52" viewBox="2.7 -35 341.02000000000004 46" height="53.346781996774666" data-palette-color="#ef2c5a"><path d="M2.7-12.8L2.7-12.8Q2.7-17.75 4.33-20.68 5.95-23.6 8.6-24.85 11.25-26.1 14.25-26.1L14.25-26.1Q17.7-26.1 20.03-24.73 22.35-23.35 23.53-20.83 24.7-18.3 24.7-14.8L24.7-14.8Q24.7-13.8 24.6-12.95 24.5-12.1 24.35-11.35L24.35-11.35 4.9-11.35 4.9-12.25 9.4-14.75 20.45-14.75Q20.45-17 19.98-18.75 19.5-20.5 18.15-21.5 16.8-22.5 14.2-22.5L14.2-22.5Q11.5-22.5 9.93-21.33 8.35-20.15 7.68-18.05 7-15.95 7-13.15L7-13.15Q7-9.8 7.75-7.75 8.5-5.7 9.75-4.7 11-3.7 12.5-3.35 14-3 15.5-3L15.5-3Q17.85-3 19.58-3.48 21.3-3.95 22.65-4.75L22.65-4.75 23.45-4.25 23.45-0.65Q21.9-0.1 20.03 0.25 18.15 0.6 15.95 0.6L15.95 0.6Q13.55 0.6 11.18 0.03 8.8-0.55 6.9-2 5-3.45 3.85-6.08 2.7-8.7 2.7-12.8ZM33.25 0L28.35 0 36.8-12.9 28.6-25.5 33.5-25.5 35.5-21.9 39.25-16.1 39.75-14.1 40.05-14.1 40.55-16.1 44.4-21.9 46.4-25.5 51.3-25.5 43-12.9 51.55 0 46.65 0 44.55-3.45 40.55-9.25 40.05-11.25 39.75-11.25 39.25-9.25 35.35-3.45 33.25 0ZM68.25 0.6L68.25 0.6Q67 0.6 66.07 0.45 65.14 0.3 64.55 0.1L64.55 0.1 59.59-4.05 59.59-7.1Q60.8-5.5 62.05-4.6 63.3-3.7 64.69-3.35 66.09-3 67.64-3L67.64-3Q72.3-3 74.02-5.5 75.75-8 75.75-12.5L75.75-12.5Q75.75-15.75 74.97-17.98 74.19-20.2 72.47-21.35 70.75-22.5 67.89-22.5L67.89-22.5Q65.84-22.5 64.27-21.95 62.7-21.4 61.52-20.48 60.34-19.55 59.39-18.45L59.39-18.45 59.39-21.65 64.59-25.4Q65.5-25.7 66.57-25.9 67.64-26.1 68.8-26.1L68.8-26.1Q71.59-26.1 74.17-24.73 76.75-23.35 78.39-20.4 80.05-17.45 80.05-12.75L80.05-12.75Q80.05-8.9 78.75-5.88 77.44-2.85 74.84-1.13 72.25 0.6 68.25 0.6ZM61.84 11L56.64 11 57.14 7 57.14-21.5 56.64-25.5 60.34-25.5 61.34-20.9 61.34 7 61.84 11ZM85.44-12.8L85.44-12.8Q85.44-17.75 87.07-20.68 88.69-23.6 91.34-24.85 93.99-26.1 96.99-26.1L96.99-26.1Q100.44-26.1 102.77-24.73 105.09-23.35 106.27-20.83 107.44-18.3 107.44-14.8L107.44-14.8Q107.44-13.8 107.34-12.95 107.24-12.1 107.09-11.35L107.09-11.35 87.64-11.35 87.64-12.25 92.14-14.75 103.19-14.75Q103.19-17 102.72-18.75 102.24-20.5 100.89-21.5 99.54-22.5 96.94-22.5L96.94-22.5Q94.24-22.5 92.67-21.33 91.09-20.15 90.42-18.05 89.74-15.95 89.74-13.15L89.74-13.15Q89.74-9.8 90.49-7.75 91.24-5.7 92.49-4.7 93.74-3.7 95.24-3.35 96.74-3 98.24-3L98.24-3Q100.59-3 102.32-3.48 104.04-3.95 105.39-4.75L105.39-4.75 106.19-4.25 106.19-0.65Q104.64-0.1 102.77 0.25 100.89 0.6 98.69 0.6L98.69 0.6Q96.29 0.6 93.92 0.03 91.54-0.55 89.64-2 87.74-3.45 86.59-6.08 85.44-8.7 85.44-12.8ZM136.19 0L130.99 0 131.49-4 131.49-16.75Q131.49-19.5 129.94-20.9 128.39-22.3 125.34-22.3L125.34-22.3Q122.94-22.3 121.24-21.6 119.54-20.9 118.47-20.03 117.39-19.15 116.84-18.55L116.84-18.55 116.84-21.45 122.24-25.55Q123.24-25.8 124.29-25.95 125.34-26.1 126.44-26.1L126.44-26.1Q128.84-26.1 130.94-25.28 133.04-24.45 134.37-22.45 135.69-20.45 135.69-16.9L135.69-16.9 135.69-4 136.19 0ZM118.79 0L113.59 0 114.09-4 114.09-21.6 113.59-25.5 117.59-25.5 118.29-22.55 118.29-4 118.79 0ZM159.79-24.9L159.79-24.9 159.79-21.1 158.99-20.6Q157.59-21.5 155.89-22 154.19-22.5 151.99-22.5L151.99-22.5Q150.49-22.5 149.26-22.23 148.04-21.95 147.31-21.28 146.59-20.6 146.59-19.4L146.59-19.4Q146.59-17.95 147.64-17.1 148.69-16.25 150.36-15.65 152.04-15.05 153.89-14.45 155.74-13.85 157.41-12.95 159.09-12.05 160.14-10.55 161.19-9.05 161.19-6.65L161.19-6.65Q161.19-3.8 159.71-2.23 158.24-0.65 155.84-0.03 153.44 0.6 150.74 0.6L150.74 0.6Q147.99 0.6 145.89 0.15 143.79-0.3 142.29-0.8L142.29-0.8 142.29-4.5 143.09-5Q144.69-4.05 146.54-3.53 148.39-3 151.09-3L151.09-3Q152.64-3 153.99-3.25 155.34-3.5 156.21-4.25 157.09-5 157.09-6.45L157.09-6.45Q157.09-8.1 156.04-9.05 154.99-10 153.31-10.6 151.64-11.2 149.76-11.75 147.89-12.3 146.21-13.13 144.54-13.95 143.49-15.4 142.44-16.85 142.44-19.2L142.44-19.2Q142.44-21.35 143.31-22.7 144.19-24.05 145.66-24.8 147.14-25.55 148.91-25.83 150.69-26.1 152.49-26.1L152.49-26.1Q154.69-26.1 156.51-25.78 158.34-25.45 159.79-24.9ZM166.38-12.8L166.38-12.8Q166.38-17.75 168.01-20.68 169.63-23.6 172.28-24.85 174.94-26.1 177.94-26.1L177.94-26.1Q181.38-26.1 183.71-24.73 186.03-23.35 187.21-20.83 188.38-18.3 188.38-14.8L188.38-14.8Q188.38-13.8 188.28-12.95 188.19-12.1 188.03-11.35L188.03-11.35 168.59-11.35 168.59-12.25 173.09-14.75 184.13-14.75Q184.13-17 183.66-18.75 183.19-20.5 181.84-21.5 180.49-22.5 177.88-22.5L177.88-22.5Q175.19-22.5 173.61-21.33 172.03-20.15 171.36-18.05 170.69-15.95 170.69-13.15L170.69-13.15Q170.69-9.8 171.44-7.75 172.19-5.7 173.44-4.7 174.69-3.7 176.19-3.35 177.69-3 179.19-3L179.19-3Q181.53-3 183.26-3.48 184.99-3.95 186.34-4.75L186.34-4.75 187.13-4.25 187.13-0.65Q185.59-0.1 183.71 0.25 181.84 0.6 179.63 0.6L179.63 0.6Q177.24 0.6 174.86 0.03 172.49-0.55 170.59-2 168.69-3.45 167.53-6.08 166.38-8.7 166.38-12.8ZM196.13 0L191.13 0 201.98-17.45 191.83-35 196.73-35 198.13-32.1 204.78-20.45 205.18-18.95 205.58-18.95 205.98-20.45 212.68-32.1 214.08-35 218.98-35 208.88-17.5 219.73 0 214.88 0 213.18-3 206.13-14.55 205.63-16.05 205.33-16.05 204.83-14.55 197.83-3 196.13 0ZM235.53 0.6L235.53 0.6Q234.28 0.6 233.36 0.45 232.43 0.3 231.83 0.1L231.83 0.1 226.88-4.05 226.88-7.1Q228.08-5.5 229.33-4.6 230.58-3.7 231.98-3.35 233.38-3 234.93-3L234.93-3Q239.58-3 241.31-5.5 243.03-8 243.03-12.5L243.03-12.5Q243.03-15.75 242.26-17.98 241.48-20.2 239.76-21.35 238.03-22.5 235.18-22.5L235.18-22.5Q233.13-22.5 231.56-21.95 229.98-21.4 228.81-20.48 227.63-19.55 226.68-18.45L226.68-18.45 226.68-21.65 231.88-25.4Q232.78-25.7 233.86-25.9 234.93-26.1 236.08-26.1L236.08-26.1Q238.88-26.1 241.46-24.73 244.03-23.35 245.68-20.4 247.33-17.45 247.33-12.75L247.33-12.75Q247.33-8.9 246.03-5.88 244.73-2.85 242.13-1.13 239.53 0.6 235.53 0.6ZM229.13 11L223.93 11 224.43 7 224.43-21.5 223.93-25.5 227.63-25.5 228.63-20.9 228.63 7 229.13 11ZM259.03 0L253.83 0 254.33-4 254.33-21.5 253.83-25.5 257.18-25.5 257.98-22.55 258.53-22.55 258.53-4 259.03 0ZM257.48-16.45L257.48-16.45 257.48-21.7 261.88-25.45Q263.68-26.1 265.58-26.1L265.58-26.1Q266.43-26.1 267.33-25.98 268.23-25.85 269.18-25.45L269.18-25.45 269.18-22.1 268.38-21.6Q267.53-21.9 266.75-22 265.98-22.1 265.33-22.1L265.33-22.1Q262.38-22.1 260.53-20.58 258.68-19.05 257.48-16.45ZM273.48-12.8L273.48-12.8Q273.48-17.75 275.1-20.68 276.73-23.6 279.38-24.85 282.03-26.1 285.03-26.1L285.03-26.1Q288.48-26.1 290.8-24.73 293.13-23.35 294.3-20.83 295.48-18.3 295.48-14.8L295.48-14.8Q295.48-13.8 295.38-12.95 295.28-12.1 295.13-11.35L295.13-11.35 275.68-11.35 275.68-12.25 280.18-14.75 291.23-14.75Q291.23-17 290.75-18.75 290.28-20.5 288.93-21.5 287.58-22.5 284.98-22.5L284.98-22.5Q282.28-22.5 280.7-21.33 279.13-20.15 278.45-18.05 277.78-15.95 277.78-13.15L277.78-13.15Q277.78-9.8 278.53-7.75 279.28-5.7 280.53-4.7 281.78-3.7 283.28-3.35 284.78-3 286.28-3L286.28-3Q288.63-3 290.35-3.48 292.08-3.95 293.43-4.75L293.43-4.75 294.23-4.25 294.23-0.65Q292.68-0.1 290.8 0.25 288.93 0.6 286.73 0.6L286.73 0.6Q284.33 0.6 281.95 0.03 279.58-0.55 277.68-2 275.78-3.45 274.63-6.08 273.48-8.7 273.48-12.8ZM318.12-24.9L318.12-24.9 318.12-21.1 317.32-20.6Q315.92-21.5 314.22-22 312.52-22.5 310.32-22.5L310.32-22.5Q308.82-22.5 307.6-22.23 306.37-21.95 305.65-21.28 304.92-20.6 304.92-19.4L304.92-19.4Q304.92-17.95 305.97-17.1 307.02-16.25 308.7-15.65 310.37-15.05 312.22-14.45 314.07-13.85 315.75-12.95 317.42-12.05 318.47-10.55 319.52-9.05 319.52-6.65L319.52-6.65Q319.52-3.8 318.05-2.23 316.57-0.65 314.17-0.03 311.77 0.6 309.07 0.6L309.07 0.6Q306.32 0.6 304.22 0.15 302.12-0.3 300.62-0.8L300.62-0.8 300.62-4.5 301.42-5Q303.02-4.05 304.87-3.53 306.72-3 309.42-3L309.42-3Q310.97-3 312.32-3.25 313.67-3.5 314.55-4.25 315.42-5 315.42-6.45L315.42-6.45Q315.42-8.1 314.37-9.05 313.32-10 311.65-10.6 309.97-11.2 308.1-11.75 306.22-12.3 304.55-13.13 302.87-13.95 301.82-15.4 300.77-16.85 300.77-19.2L300.77-19.2Q300.77-21.35 301.65-22.7 302.52-24.05 304-24.8 305.47-25.55 307.25-25.83 309.02-26.1 310.82-26.1L310.82-26.1Q313.02-26.1 314.85-25.78 316.67-25.45 318.12-24.9ZM342.32-24.9L342.32-24.9 342.32-21.1 341.52-20.6Q340.12-21.5 338.42-22 336.72-22.5 334.52-22.5L334.52-22.5Q333.02-22.5 331.8-22.23 330.57-21.95 329.85-21.28 329.12-20.6 329.12-19.4L329.12-19.4Q329.12-17.95 330.17-17.1 331.22-16.25 332.9-15.65 334.57-15.05 336.42-14.45 338.27-13.85 339.95-12.95 341.62-12.05 342.67-10.55 343.72-9.05 343.72-6.65L343.72-6.65Q343.72-3.8 342.25-2.23 340.77-0.65 338.37-0.03 335.97 0.6 333.27 0.6L333.27 0.6Q330.52 0.6 328.42 0.15 326.32-0.3 324.82-0.8L324.82-0.8 324.82-4.5 325.62-5Q327.22-4.05 329.07-3.53 330.92-3 333.62-3L333.62-3Q335.17-3 336.52-3.25 337.87-3.5 338.75-4.25 339.62-5 339.62-6.45L339.62-6.45Q339.62-8.1 338.57-9.05 337.52-10 335.85-10.6 334.17-11.2 332.3-11.75 330.42-12.3 328.75-13.13 327.07-13.95 326.02-15.4 324.97-16.85 324.97-19.2L324.97-19.2Q324.97-21.35 325.85-22.7 326.72-24.05 328.2-24.8 329.67-25.55 331.45-25.83 333.22-26.1 335.02-26.1L335.02-26.1Q337.22-26.1 339.05-25.78 340.87-25.45 342.32-24.9Z" opacity="1" transform="matrix(1,0,0,1,0,0)" fill="#ef2c5a" class="wordmark-text-0" data-fill-palette-color="primary" id="text-0"></path></svg></g></svg></g></svg></g></svg></g></svg></g><defs></defs></svg><rect width="395.52" height="53.346781996774666" fill="none" stroke="none" visibility="hidden"></rect></g></svg></g></svg>